<svg xmlns="http://www.w3.org/2000/svg" xmlns:xlink="http://www.w3.org/1999/xlink" width="65" height="65" viewBox="0 0 65 65">
  <defs>
    <filter id="Boton" x="0" y="0" width="65" height="65" filterUnits="userSpaceOnUse">
      <feOffset input="SourceAlpha"/>
      <feGaussianBlur stdDeviation="2.5" result="blur"/>
      <feFlood flood-opacity="0.2"/>
      <feComposite operator="in" in2="blur"/>
      <feComposite in="SourceGraphic"/>
    </filter>
    <linearGradient id="linear-gradient" x1="0.5" y1="1" x2="0.5" gradientUnits="objectBoundingBox">
      <stop offset="0" stop-color="#002ed8"/>
      <stop offset="1" stop-color="#00d7ff"/>
    </linearGradient>
  </defs>
  <g id="Buscar" transform="translate(2.5 2.5)">
    <g transform="matrix(1, 0, 0, 1, -2.5, -2.5)" filter="url(#Boton)">
      <rect id="Boton-2" data-name="Boton" width="50" height="50" rx="10" transform="translate(7.5 7.5)" fill="#fff"/>
    </g>
    <g id="Lupa" transform="translate(45.441 37.375) rotate(-40)">
      <path id="Trazado_1" data-name="Trazado 1" d="M-7.127,5.3a2.1,2.1,0,0,1-1.456-1.09c-.253-.5-.234-.023-.245-6.185-.006-3.061-.018-5.579-.028-5.594a.487.487,0,0,0-.191-.054,12.591,12.591,0,0,1-9.8-9.278A12.51,12.51,0,0,1-3.7-32.025,12.514,12.514,0,0,1,2.275-11.247,12.674,12.674,0,0,1-4.433-7.625c-.248.033-.232-.243-.211,3.691.026,4.906-.007,7.606-.1,7.848A2.132,2.132,0,0,1-7.127,5.3ZM-5.47-11.666a8.329,8.329,0,0,0,6.476-11.3,8.326,8.326,0,0,0-13.588-2.848A8.345,8.345,0,0,0-7.491-11.6a15.686,15.686,0,0,0,2.021-.064Z" transform="translate(0)" fill="url(#linear-gradient)"/>
    </g>
  </g>
</svg>
