<svg xmlns="http://www.w3.org/2000/svg" xmlns:xlink="http://www.w3.org/1999/xlink" width="92.451" height="49.533" viewBox="0 0 92.451 49.533">
  <defs>
    <linearGradient id="linear-gradient" x1="0.5" y1="1" x2="0.5" gradientUnits="objectBoundingBox">
      <stop offset="0" stop-color="#ff5e00"/>
      <stop offset="1" stop-color="#ffce00"/>
    </linearGradient>
    <linearGradient id="linear-gradient-3" x1="0.5" y1="1" x2="0.5" gradientUnits="objectBoundingBox">
      <stop offset="0" stop-color="#002ed8"/>
      <stop offset="1" stop-color="#00d7ff"/>
    </linearGradient>
  </defs>
  <g id="Nictur_Logo" data-name="Nictur Logo" transform="translate(0 0)">
    <path id="Trazado_12" data-name="Trazado 12" d="M-2115.207,5777.305a11.18,11.18,0,0,1-.8.839,8.188,8.188,0,0,1-3.849,2.189,6.294,6.294,0,0,1-1.132.168c-.317.021-.634.043-.95.035a5.127,5.127,0,0,1-3.087-1,4.779,4.779,0,0,1-1.918-3.325,10.048,10.048,0,0,1,.087-2.618c.186-1.341.515-2.652.832-3.965.388-1.6.786-3.207,1.178-4.81.05-.205.089-.414.136-.635a2.668,2.668,0,0,0-.454.061,9.247,9.247,0,0,1-2.264.047,12.97,12.97,0,0,1-2.59-.562c-.179-.052-.357-.106-.538-.156-.255-.068-.257-.067-.354.186a16.112,16.112,0,0,0-.64,2.116c-.233,1-.46,2-.674,3-.238,1.121-.451,2.248-.687,3.369a16.607,16.607,0,0,1-1.11,3.545,8.671,8.671,0,0,1-2.208,2.969,7.848,7.848,0,0,1-3.692,1.782,11.73,11.73,0,0,1-2.7.168,11.365,11.365,0,0,1-2.318-.333,7.279,7.279,0,0,1-1.066-.343.687.687,0,0,1-.441-.562,12.856,12.856,0,0,1-.152-1.724.8.8,0,0,1,.182-.518.445.445,0,0,1,.7-.049,5.855,5.855,0,0,0,1.9,1.321,4.752,4.752,0,0,0,2.375.4,4.694,4.694,0,0,0,3.558-2.117,10.635,10.635,0,0,0,1.455-3.439c.467-1.912.914-3.828,1.371-5.742.18-.752.376-1.5.539-2.258a1.907,1.907,0,0,1,.546-.952,8.24,8.24,0,0,1,1.508-1.291.106.106,0,0,0,.056-.118c-.256-.086-.526-.179-.8-.268a19.678,19.678,0,0,0-2.21-.614,5.639,5.639,0,0,0-1.694-.136,4.25,4.25,0,0,0-2.168.834,4.106,4.106,0,0,0-1.135,1.369,6.5,6.5,0,0,0-.7,2.2,4.6,4.6,0,0,0,.639,3.107,4.567,4.567,0,0,0,1.635,1.459,6.183,6.183,0,0,0,.644.341.5.5,0,0,1,.092.866.364.364,0,0,1-.227.084c-.56.021-1.119.049-1.679.066a4.308,4.308,0,0,0-.8.124,1.225,1.225,0,0,1-.792-.067,4.548,4.548,0,0,1-2.819-3.416,8.314,8.314,0,0,1-.091-2.064,5.873,5.873,0,0,1,.905-2.878,7.61,7.61,0,0,1,1.394-1.6,8.6,8.6,0,0,1,2.9-1.661,12.441,12.441,0,0,1,2.669-.6,22.308,22.308,0,0,1,2.995-.075,12.844,12.844,0,0,1,1.666.164c.82.116,1.636.262,2.45.423.539.107,1.081.2,1.622.295.559.1,1.121.169,1.687.227a5.232,5.232,0,0,0,2.512-.388,2.75,2.75,0,0,0,1.306-.974.487.487,0,0,1,.5-.23.315.315,0,0,1,.314.321,2.688,2.688,0,0,1-.059.751.4.4,0,0,0,.144.464,1.067,1.067,0,0,1,.349.738,6.057,6.057,0,0,1-.139,1.971c-.258,1.459-.619,2.9-.966,4.337-.386,1.6-.754,3.213-1.065,4.833a10.757,10.757,0,0,0-.284,2.466,3.474,3.474,0,0,0,.492,1.672,1.851,1.851,0,0,0,1.186.822,3.584,3.584,0,0,0,2.344-.267,7.484,7.484,0,0,0,3.538-3.11,10.355,10.355,0,0,0,1.351-3.626c.2-1.081.447-2.152.678-3.228.372-1.725.889-3.411,1.369-5.107a13.259,13.259,0,0,1,.423-1.275,2,2,0,0,1,.579-.78.735.735,0,0,1,.467-.167,13.666,13.666,0,0,1,2.617.2c.183.03.339.1.384.276a.451.451,0,0,1-.151.528,1.856,1.856,0,0,0-.583.84,24.535,24.535,0,0,0-1.02,2.994c-.521,1.822-.925,3.671-1.309,5.525q-.334,1.614-.575,3.245a8.344,8.344,0,0,0-.113,1.223,5.392,5.392,0,0,0,.307,1.893,1.541,1.541,0,0,0,1.212,1,4.326,4.326,0,0,0,3.1-.527,5.643,5.643,0,0,0,1.164-.87.49.49,0,0,1,.65.006,1.032,1.032,0,0,1,.259,1.057,1.977,1.977,0,0,1-.8,1.209,6.5,6.5,0,0,1-2.539,1.261,8.86,8.86,0,0,1-3.026.272,3.709,3.709,0,0,1-3.083-1.86,4.008,4.008,0,0,1-.451-1.289A.078.078,0,0,0-2115.207,5777.305Z" transform="translate(2162.672 -5737.511)" fill="url(#linear-gradient)"/>
    <path id="Trazado_13" data-name="Trazado 13" d="M1229.566,5848.25c-.168,0-.337,0-.505,0a13.379,13.379,0,0,1-2.332-.227,17.284,17.284,0,0,1-4.426-1.372,26.566,26.566,0,0,1-2.884-1.56,33.477,33.477,0,0,1-3.809-2.757c-.561-.464-1.106-.949-1.625-1.46q-.709-.7-1.408-1.408c-.689-.7-1.338-1.432-1.982-2.171-.784-.9-1.532-1.832-2.254-2.783-.587-.774-1.166-1.556-1.68-2.38a.761.761,0,0,1,.557-1.166c1.056-.112,2.107-.25,3.148-.459a8.286,8.286,0,0,0,1.99-.646,2.849,2.849,0,0,0,1.6-3.375,3.038,3.038,0,0,0-1.709-2.194,8.145,8.145,0,0,0-2.425-.743c-.389-.059-.781-.039-1.169-.1a2.668,2.668,0,0,0-.777.068.353.353,0,0,0-.321.3q-.42,1.6-.792,3.2-.346,1.5-.663,3c-.281,1.34-.544,2.684-.779,4.034-.25,1.439-.489,2.881-.731,4.322q-.219,1.309-.433,2.618c-.052.316-.163.4-.48.419a4.676,4.676,0,0,0-2.169.677.459.459,0,0,0-.148.126.532.532,0,0,1-.578.185.786.786,0,0,1-.5-.335c-.05-.062-.03-.144-.032-.218a3.237,3.237,0,0,1,.174-.847c.4-1.631.788-3.264,1.149-4.9.221-1,.447-2,.663-3,.3-1.4.594-2.808.9-4.211.279-1.292.52-2.593.765-3.893.076-.4.128-.81.186-1.216.024-.171-.036-.232-.232-.216a4,4,0,0,0-1.324.325,3.9,3.9,0,0,0-2.312,3.126,3.323,3.323,0,0,0,.889,2.914.471.471,0,0,1,.073.5.336.336,0,0,1-.378.222,7.713,7.713,0,0,1-2.358-.417,2.165,2.165,0,0,1-1.17-1.154,3.124,3.124,0,0,1-.312-1.409,6.124,6.124,0,0,1,.085-1.281,3.847,3.847,0,0,1,.91-1.773,7.317,7.317,0,0,1,2.213-1.7,10.949,10.949,0,0,1,2.121-.794,19.364,19.364,0,0,1,2.94-.532,23.106,23.106,0,0,1,3.246-.09,19.326,19.326,0,0,1,4.25.612,9.037,9.037,0,0,1,3.02,1.372,5.53,5.53,0,0,1,1.084,1.048,3.023,3.023,0,0,1,.632,1.761,4.092,4.092,0,0,1-.434,2.251,4.644,4.644,0,0,1-.6.847,9.4,9.4,0,0,1-3.994,2.605,12.661,12.661,0,0,1-1.5.449c-.266.06-.267.07-.133.3a23.476,23.476,0,0,0,2.167,2.992,31.294,31.294,0,0,0,2.52,2.669,27.428,27.428,0,0,0,2.868,2.37,29.388,29.388,0,0,0,4.342,2.612,17.35,17.35,0,0,0,4.8,1.569c.542.09,1.086.154,1.635.192a10.331,10.331,0,0,0,1.2.029,7.792,7.792,0,0,0,3.325-.764,3.6,3.6,0,0,0,.961-.715.486.486,0,0,1,.673-.047,1.255,1.255,0,0,1,.5,1.349,3.125,3.125,0,0,1-1.6,2.217,6.266,6.266,0,0,1-2.542.9A10.811,10.811,0,0,1,1229.566,5848.25Z" transform="translate(-1143.369 -5798.723)" fill="url(#linear-gradient)"/>
    <path id="Trazado_14" data-name="Trazado 14" d="M-3565.413,3810.564q.364-1.809.729-3.617c.19-.94.376-1.881.573-2.82.323-1.542.63-3.087,1.013-4.615a19.835,19.835,0,0,1,1.394-4.072,4.706,4.706,0,0,1,1.23-1.51,1.986,1.986,0,0,1,1.27-.441,7.759,7.759,0,0,1,3.425.822,1.008,1.008,0,0,1,.333.251.45.45,0,0,1-.052.621.4.4,0,0,1-.237.06,4.663,4.663,0,0,0-1.329.3,3.734,3.734,0,0,0-1.619,1.334,13.215,13.215,0,0,0-1.446,2.87,28.088,28.088,0,0,0-1,3.526q-.406,1.757-.777,3.522c-.23,1.1-.435,2.212-.65,3.318q-.283,1.454-.563,2.907c-.147.768-.3,1.537-.434,2.306a.706.706,0,0,1-.478.566,5.851,5.851,0,0,1-1.55.337.586.586,0,0,1-.624-.368c-.115-.214-.222-.432-.331-.649-.753-1.505-1.5-3.014-2.26-4.517-.745-1.478-1.487-2.957-2.251-4.425-.652-1.252-1.306-2.5-1.91-3.779-.008-.016-.025-.026-.061-.062-.028.092-.059.171-.076.253-.239,1.159-.492,2.315-.7,3.479q-.28,1.582-.55,3.165-.447,2.644-.882,5.289c-.073.45-.132.9-.229,1.347-.055.251-.153.329-.4.331-.477,0-.955,0-1.432,0a1.333,1.333,0,0,1-1.105-.56.787.787,0,0,1-.159-.468,7.9,7.9,0,0,1,.259-1.906c.171-.821.355-1.641.545-2.458.247-1.062.5-2.123.759-3.183.342-1.423.69-2.845,1.031-4.269q.342-1.427.668-2.858c.1-.436.184-.875.265-1.314.037-.2.011-.246-.184-.255-.336-.017-.674-.018-1.01,0a6.837,6.837,0,0,1-1.558.035.737.737,0,0,1-.607-.606,4.492,4.492,0,0,1,.138-1.526c.133-.44.394-.462.681-.36a6.942,6.942,0,0,0,1.58.344,4.789,4.789,0,0,0,1.367-.071,4.993,4.993,0,0,0,1-.266c.694-.281,1.046-.019,1.357.542.29.523.542,1.067.808,1.6q1.856,3.73,3.71,7.461,1.055,2.122,2.105,4.246c.033.067.072.131.108.2C-3565.452,3810.665-3565.438,3810.6-3565.413,3810.564Z" transform="translate(3578.548 -3793.487)" fill="url(#linear-gradient-3)"/>
    <path id="Trazado_15" data-name="Trazado 15" d="M-1160.978,4021.313a12.375,12.375,0,0,1,.493-3.945,12.875,12.875,0,0,1,1.852-3.814,12.284,12.284,0,0,1,1.746-1.966,10.968,10.968,0,0,1,4.75-2.641,9.51,9.51,0,0,1,2.488-.334c.533.01,1.066-.019,1.6.021a10.969,10.969,0,0,1,2.25.414,8.444,8.444,0,0,1,1.924.831,4.419,4.419,0,0,1,1.255,1.106.535.535,0,0,1,.054.625,5.966,5.966,0,0,0-.661,1.981c-.109.566-.165,1.141-.221,1.715a.349.349,0,0,1-.29.329,7.725,7.725,0,0,1-.942.109c-.317,0-.443-.124-.445-.434,0-.233.015-.466,0-.7a4.326,4.326,0,0,0-1.08-2.645,3.491,3.491,0,0,0-1.806-1.017,5.27,5.27,0,0,0-1.719-.176,7.374,7.374,0,0,0-2.813.777,7.975,7.975,0,0,0-2.9,2.618,12.289,12.289,0,0,0-1.917,4.744,13.8,13.8,0,0,0-.193,1.692,8.74,8.74,0,0,0,.286,2.819,4.51,4.51,0,0,0,1.114,2.074,4.387,4.387,0,0,0,2.087,1.145,6.266,6.266,0,0,0,3.1-.032,6.278,6.278,0,0,0,3.239-1.951,9.09,9.09,0,0,0,1.915-3.389,1.573,1.573,0,0,1,.072-.211.442.442,0,0,1,.454-.3,3.113,3.113,0,0,1,.607.078,1.274,1.274,0,0,1,.894,1.14,5.619,5.619,0,0,1-.115,1.67,4.985,4.985,0,0,1-.721,1.541,8.685,8.685,0,0,1-3.079,2.718,9.984,9.984,0,0,1-2.719,1.012,12.032,12.032,0,0,1-1.521.211,15.466,15.466,0,0,1-1.682.024,7.567,7.567,0,0,1-4.555-1.486,6.521,6.521,0,0,1-2.417-3.448,10.845,10.845,0,0,1-.341-1.866C-1160.989,4021.942-1160.965,4021.532-1160.978,4021.313Z" transform="translate(1188.109 -4006.198)" fill="url(#linear-gradient-3)"/>
    <path id="Trazado_16" data-name="Trazado 16" d="M-1869.644,4034.8c.879,0,1.756-.056,2.635-.055a18.535,18.535,0,0,0,1.9-.113c.453-.046.909-.061,1.359-.143a.573.573,0,0,1,.724.569c.023.326.013.654.008.981a.3.3,0,0,1-.272.3c-.246.051-.494.1-.741.137a.648.648,0,0,0-.595.568c-.158.8-.352,1.6-.521,2.4-.235,1.112-.461,2.226-.688,3.339q-.454,2.218-.905,4.438-.517,2.533-1.033,5.066a6.189,6.189,0,0,1-.176.762,1.693,1.693,0,0,1-1.32,1.128,8.943,8.943,0,0,1-1.383.178c-.336.024-.671.027-1.006.041a.409.409,0,0,1-.366-.157c-.082-.1-.174-.195-.254-.3a.456.456,0,0,1,.053-.58,1.259,1.259,0,0,1,.414-.231.837.837,0,0,0,.515-.614c.313-1.2.617-2.4.9-3.611.336-1.435.677-2.868,1.007-4.3.277-1.208.542-2.418.809-3.628q.262-1.187.514-2.377.138-.656.253-1.317c.046-.26-.023-.354-.283-.424a1.885,1.885,0,0,0-.445-.043,10.521,10.521,0,0,0-2.255.171.66.66,0,0,1-.333-.007.3.3,0,0,1-.225-.29,3.58,3.58,0,0,1,.122-1.22,1.422,1.422,0,0,1,.5-.619.4.4,0,0,1,.27-.055Z" transform="translate(1891.506 -4031.771)" fill="url(#linear-gradient-3)"/>
  </g>
</svg>
